<?xml version="1.0" encoding="UTF-8"?>
<svg version="1.1" xmlns="http://www.w3.org/2000/svg" width="1600" height="800" viewBox="300 600 1400 800">
<path d="M0 0 C687.72 0 1375.44 0 2084 0 C2084 687.72 2084 1375.44 2084 2084 C1396.28 2084 708.56 2084 0 2084 C0 1396.28 0 708.56 0 0 Z " fill="#000000" transform="translate(0,0)"/>
<path d="M0 0 C70.785 0.495 70.785 0.495 143 1 C143 23.44 143 45.88 143 69 C234.08 69 325.16 69 419 69 C414.28443198 77.08383089 409.50897108 85.02396057 404.4375 92.875 C403.02187857 95.07665779 401.60651886 97.27848388 400.19140625 99.48046875 C399.13590576 101.12088135 399.13590576 101.12088135 398.05908203 102.79443359 C394.98322048 107.58291618 391.92782944 112.3843123 388.875 117.1875 C388.30579834 118.08259277 387.73659668 118.97768555 387.15014648 119.89990234 C386.0059101 121.69931027 384.86178521 123.4987891 383.71777344 125.29833984 C380.81326436 129.86646057 377.90650771 134.43315077 375 139 C373.8333228 140.83332663 372.66665613 142.66665996 371.5 144.5 C369.16666667 148.16666667 366.83333333 151.83333333 364.5 155.5 C363.9220166 156.40830566 363.3440332 157.31661133 362.74853516 158.25244141 C361.58691995 160.07774405 360.42513727 161.90294014 359.26318359 163.72802734 C356.26781689 168.4333508 353.2757675 173.1407355 350.2890625 177.8515625 C349.36867188 179.30175781 349.36867188 179.30175781 348.4296875 180.78125 C347.2749347 182.60086047 346.12119159 184.42111235 344.96875 186.2421875 C343.9196189 187.89444228 342.85308941 189.53582562 341.76647949 191.16367722 C339.93499396 193.97654721 339.93499396 193.97654721 338.5645752 197.08598709 C336.69912856 200.68971339 334.98513213 203.23235812 332 206 C325.92352385 207.76330628 320.02264729 207.5220241 313.7421875 207.36230469 C311.87896444 207.35891706 310.01572537 207.36082519 308.1525116 207.36761475 C303.10834499 207.3710512 298.06761846 207.30062553 293.02425003 207.21672726 C287.7486858 207.1415916 282.4730382 207.13465338 277.19702148 207.12042236 C267.21276783 207.08315874 257.2300953 206.98473501 247.24653721 206.86422849 C233.75135456 206.70487922 220.25573796 206.6402177 206.75985146 206.57020187 C185.50538384 206.45744273 164.2542524 206.21836561 143 206 C143 250.88 143 295.76 143 342 C156.91414062 341.74476563 170.82828125 341.48953125 185.1640625 341.2265625 C193.98706924 341.11413156 202.80955562 341.00731535 211.6328125 340.92578125 C225.63396999 340.7953581 239.63220968 340.64227138 253.63085938 340.34033203 C263.8277071 340.12049997 274.0221833 339.97899789 284.22133482 339.93005311 C289.61940298 339.90145072 295.01068979 339.83468083 300.40657425 339.67393875 C333.14069974 338.73632328 333.14069974 338.73632328 341.10747528 344.08708954 C345.91601559 349.08134856 348.53019374 354.61719977 350.83289719 361.08588791 C352.85835925 366.14321741 355.96975796 370.49945063 359 375 C360.1713441 376.83034839 361.33857069 378.66334429 362.5 380.5 C363.0775 381.4075 363.655 382.315 364.25 383.25 C375.33333333 400.66666667 386.41666667 418.08333333 397.5 435.5 C398.0784668 436.40886963 398.65693359 437.31773926 399.25292969 438.25415039 C400.4103793 440.07330017 401.56728738 441.89279463 402.72363281 443.71264648 C405.77679034 448.51606837 408.84127562 453.31177937 411.921875 458.09765625 C412.56253906 459.09603516 413.20320313 460.09441406 413.86328125 461.12304688 C415.09159704 463.03672727 416.32320219 464.94830165 417.55859375 466.85742188 C418.11160156 467.72044922 418.66460938 468.58347656 419.234375 469.47265625 C419.72131836 470.22812744 420.20826172 470.98359863 420.70996094 471.76196289 C422 474 422 474 424 479 C284.08 479 144.16 479 0 479 C0 320.93 0 162.86 0 0 Z " fill="#FEFEFE" transform="translate(393,895)"/>
<path d="M0 0 C20.3250678 -5.51954766 45.85176249 -8.89697083 65.36023062 1.22455168 C92.27407209 17.17884113 114.17595341 43.56456481 135.52116018 65.99828056 C141.93651396 72.73166493 148.42502973 79.38827262 154.97133064 85.99406433 C155.4397443 86.46680858 155.90815795 86.93955283 156.39076596 87.42662267 C158.7710248 89.82820358 161.15245553 92.22861886 163.53433872 94.62858862 C180.29966858 111.52541455 196.91496676 128.56274709 213.44360352 145.69091797 C229.47696838 162.30515836 245.57689219 178.85021054 261.76977539 195.30908203 C262.27096231 195.8185551 262.77214923 196.32802816 263.28852362 196.85293981 C268.32282349 201.97032357 273.35848842 207.08636223 278.39515361 212.20141793 C288.65066993 222.61661287 298.89707209 233.04075359 309.13795471 243.47033691 C309.60857717 243.94960864 310.07919962 244.42888036 310.56408336 244.92267547 C341.86296148 276.79886078 372.94815271 308.88334575 404 341 C400.19947931 345.51622883 396.29415515 349.87800586 392.17908192 354.10877132 C391.62254149 354.68414179 391.06600105 355.25951226 390.49259576 355.8523182 C388.63700713 357.76943929 386.77841235 359.68361471 384.91963196 361.59764099 C383.57046845 362.98951729 382.22140915 364.3814946 380.87244481 365.77356392 C377.17147825 369.59110844 373.46726458 373.40548706 369.7620455 377.2189039 C367.39076684 379.65964155 365.0202146 382.10108298 362.64977837 384.54263878 C343.1047722 404.67052446 323.50589006 424.74493081 303.83842468 444.75318909 C303.14080513 445.462915 303.14080513 445.462915 302.42909225 446.18697882 C292.3258465 456.4649836 282.21565828 466.7361305 272.09730716 476.99926468 C267.14157108 482.025934 262.18723111 487.05397808 257.23364258 492.08276367 C256.74078754 492.58305061 256.24793249 493.08333755 255.74014245 493.5987847 C239.81228166 509.76821468 223.98481162 526.03172066 208.2078045 542.3482646 C191.94890987 559.16213258 175.59266696 575.87518115 159.11110263 592.47097379 C149.41727236 602.23233948 139.77761045 612.034903 130.28051186 621.98812675 C67.46503696 687.73447454 67.46503696 687.73447454 37.60723398 688.91548647 C25.86422386 689.07446878 14.26355211 687.25084226 3 684 C2.44432939 666.03503109 2.44432939 666.03503109 2.55712891 657.96398926 C2.66167957 646.45484267 2.4205066 635.42966505 0.38964844 624.08569336 C-5.57483909 590.7391496 -10.41142756 553.20306252 10.00024414 523.85153198 C20.22222218 509.7426766 32.34259931 497.14672522 44.65625 484.87109375 C45.1898631 484.33888793 45.7234762 483.80668212 46.2732594 483.25834885 C60.10280793 469.49943851 74.39735613 456.2630489 88.84951258 443.16387612 C97.23935683 435.55118549 105.4997786 427.81463753 113.68701172 419.98461914 C114.56070793 419.1491492 114.56070793 419.1491492 115.45205456 418.29680108 C118.37561548 415.49989606 121.29716966 412.70090531 124.21773624 409.90087402 C148.17727646 386.93529273 172.46239311 364.34720533 197 342 C192.70688511 336.75781821 188.15688403 332.29058085 183.02737427 327.87611389 C181.39533547 326.45392348 179.76362356 325.03135787 178.13218784 323.60847569 C177.26549917 322.85521822 176.3988105 322.10196076 175.50585854 321.32587731 C148.75115019 298.0294553 122.6222786 274.0575068 96.84406501 249.68753558 C95.69944367 248.60552275 94.55446159 247.52389141 93.40911645 246.44264477 C-11.65306166 147.25280206 -11.65306166 147.25280206 -13.43192983 86.50691575 C-13.55140218 77.63932654 -12.87716829 68.87363696 -11.9375 60.0625 C-11.81632702 58.89328876 -11.81632702 58.89328876 -11.69270611 57.7004571 C-11.12172032 52.29408425 -10.45450314 46.90560443 -9.70068359 41.52172852 C-9.60686818 40.84925327 -9.51305277 40.17677803 -9.41639447 39.48392475 C-7.46084511 26.04196088 -3.69506129 13.04985193 0 0 Z " fill="#EC1C24" transform="translate(1014,691)"/>
<path d="M0 0 C217.8 0 435.6 0 660 0 C660 45.21 660 90.42 660 137 C593.82547496 137.32209251 593.82547496 137.32209251 573.35098267 137.41040039 C572.25566855 137.4151364 572.25566855 137.4151364 571.13822688 137.41996808 C546.55797357 137.52596349 521.9776964 137.60997682 497.39730835 137.67749023 C496.59513852 137.67969915 495.79296869 137.68190806 494.96649069 137.68418391 C477.53325543 137.73207023 460.10001282 137.77639317 442.66675923 137.81704527 C434.11751885 137.83700269 425.56828046 137.85774754 417.01904297 137.87890625 C416.16829022 137.88099839 415.31753748 137.88309054 414.44100435 137.88524608 C386.86459002 137.95343024 359.28870018 138.07361219 331.71260362 138.22075553 C303.3749616 138.37168779 275.03760985 138.47016926 246.69957268 138.50263984 C242.69721982 138.50725033 238.69486795 138.51246052 234.69251633 138.51803589 C233.51093401 138.51965404 233.51093401 138.51965404 232.30548135 138.52130488 C219.62411124 138.54021414 206.94363853 138.61442529 194.26263443 138.70931254 C181.51431595 138.80352349 168.76688718 138.83948512 156.01823278 138.81602204 C149.10987305 138.80492138 142.20391721 138.81956602 135.29603958 138.9072876 C128.9718364 138.98508439 122.65203993 138.98914445 116.32763498 138.93438232 C114.039362 138.927614 111.75081556 138.94798794 109.46308203 138.99813092 C92.77828687 139.34258639 92.77828687 139.34258639 88.1286343 135.42210829 C84.92144558 131.61916543 82.80010114 127.44395996 80.85713075 122.89049071 C79.6818703 120.29833198 78.11990391 118.07245897 76.43774414 115.78540039 C75.90837753 115.04092148 75.37901093 114.29644257 74.83360291 113.52940369 C74.30199051 112.78880203 73.77037811 112.04820038 73.22265625 111.28515625 C66.67272331 102.03706172 60.40459141 92.62533498 54.2046814 83.14013672 C41.57227398 63.8207798 28.73242861 44.64644013 15.7959137 25.5297699 C14.16689075 23.12203324 12.5391477 20.71343577 10.91162109 18.3046875 C9.08225757 15.59724444 7.24668205 12.89424104 5.40478516 10.1953125 C4.66921387 9.10992188 3.93364258 8.02453125 3.17578125 6.90625 C2.55227783 5.99166016 1.92877441 5.07707031 1.28637695 4.13476562 C0 2 0 2 0 0 Z " fill="#FEFEFE" transform="translate(302,691)"/>
<path d="M0 0 C147.84 0 295.68 0 448 0 C446.16483929 7.34064286 444.42149714 14.14271269 441.75 21.125 C441.29874756 22.32914551 441.29874756 22.32914551 440.83837891 23.55761719 C438.45264243 29.89562048 435.9719593 36.19638351 433.48974609 42.49707031 C431.63465157 47.2463637 429.94553291 52.0246594 428.375 56.875 C426.57305375 62.42263124 424.48530596 67.74914781 422.18359375 73.10546875 C420.58843661 77.00649662 419.32572108 80.99131537 418.03125 85 C416.62578224 89.08863348 414.91609195 93.02573592 413.21875 97 C412.01218484 99.97000654 410.98489934 102.94998913 410 106 C408.00410248 112.16403691 405.5228826 118.03122896 403 124 C401.35 128.29 399.7 132.58 398 137 C313.19 137 228.38 137 141 137 C141 193.1 141 249.2 141 307 C135.98685687 302.70302018 131.11101468 298.39364434 126.3125 293.875 C125.5913501 293.19703369 124.8702002 292.51906738 124.12719727 291.82055664 C117.26272513 285.32472531 110.58536756 278.64689895 103.95239258 271.91552734 C99.75524561 267.67343388 95.48934317 263.62263207 90.96264648 259.7355957 C87.42448776 256.60675252 84.13029754 253.23407157 80.8125 249.875 C80.12736328 249.18535156 79.44222656 248.49570312 78.73632812 247.78515625 C75.93809424 244.96806997 73.14454507 242.14646664 70.35546875 239.3203125 C67.80053669 236.80351375 65.16143283 234.40387481 62.5 232 C55.262571 225.40215273 48.38752295 218.44577144 41.51171875 211.47460938 C37.11855686 207.03844213 32.67586148 202.77198332 27.9362793 198.70922852 C24.40480174 195.59185689 21.12140011 192.22506346 17.8125 188.875 C17.12736328 188.18535156 16.44222656 187.49570312 15.73632812 186.78515625 C12.92229291 183.95216219 10.11295313 181.11575635 7.32421875 178.2578125 C5.02091418 176.02031663 2.50750091 174.00600073 0 172 C0 115.24 0 58.48 0 0 Z " fill="#FEFEFE" transform="translate(1292,691)"/>
<path d="M0 0 C52.8 0 105.6 0 160 0 C159.11564249 4.42178754 158.31555674 6.57829603 156.11328125 10.33203125 C155.51136963 11.36618164 154.90945801 12.40033203 154.28930664 13.46582031 C153.31078735 15.12242676 153.31078735 15.12242676 152.3125 16.8125 C151.63532009 17.97063935 150.95881589 19.12917403 150.28295898 20.28808594 C148.88716406 22.67888281 147.48737237 25.06726572 146.08398438 27.45361328 C144.1058469 30.81761707 142.1375045 34.18726302 140.171875 37.55859375 C139.26659058 39.11030273 139.26659058 39.11030273 138.34301758 40.69335938 C137.16357612 42.71812382 135.98630025 44.74415141 134.8112793 46.77148438 C132.38001285 50.96044093 129.94104006 55.13167057 127.34765625 59.22265625 C126.77325806 60.15223145 126.77325806 60.15223145 126.18725586 61.10058594 C125.22782958 62.64678154 124.24421358 64.17790321 123.2578125 65.70703125 C120.02665882 74.16623171 122.35556548 84.48351814 123.44935608 93.24777222 C123.60523663 94.53996205 123.76111719 95.83215189 123.9217214 97.163499 C124.35104971 100.72122102 124.7884758 104.27790598 125.22729266 107.83446836 C125.70040965 111.68112737 126.16583456 115.52871786 126.63215637 119.37620544 C127.44003164 126.03361199 128.25251709 132.69044253 129.06801033 139.34692001 C130.24755482 148.97617812 131.41830085 158.60649081 132.58663195 168.23711516 C134.48335822 183.87118947 136.38477574 199.50468892 138.2902832 215.13769531 C138.40418887 216.0722069 138.51809455 217.00671848 138.63545191 217.9695486 C139.79172768 227.45540829 140.94852858 236.94120389 142.10575602 246.42694753 C142.68392017 251.16613557 143.26202433 255.90533093 143.84008789 260.64453125 C143.95415913 261.57971788 144.06823036 262.51490452 144.1857583 263.47843014 C146.086426 279.06211967 147.98094327 294.6465505 149.8708362 310.23155034 C151.03642689 319.84122907 152.20747721 329.45021245 153.38554322 339.05836995 C154.19155736 345.63515834 154.99197355 352.21261221 155.78795344 358.79062252 C156.24756074 362.58717871 156.70979824 366.38336777 157.17893982 370.17875862 C157.68701573 374.28954688 158.1829161 378.4017117 158.67762756 382.51412964 C158.82839644 383.71771083 158.97916532 384.92129202 159.13450295 386.16134536 C159.26488093 387.26178652 159.39525891 388.36222769 159.52958775 389.49601555 C159.64540245 390.44504938 159.76121715 391.39408321 159.88054138 392.37187564 C160.06212181 396.36669786 159.75121012 399.06961722 157.21484375 402.2109375 C156.46332031 402.92507813 155.71179688 403.63921875 154.9375 404.375 C154.20402344 405.08398438 153.47054687 405.79296875 152.71484375 406.5234375 C150.56016249 408.48900285 148.38421488 410.41493851 146.18359375 412.328125 C142.06864008 415.91250554 138.08874852 419.62500921 134.125 423.375 C129.00956429 428.19392282 123.85689534 432.95712365 118.61328125 437.63671875 C115.24893687 440.67921255 111.93678859 443.77551086 108.625 446.875 C99.190063 455.70329532 89.69455045 464.45606539 80 473 C73.97498238 468.90851239 68.96059614 464.10832763 63.90625 458.87890625 C61.09256268 456.02219313 58.08346024 453.41923706 55.05273438 450.79663086 C51.79345693 447.94398781 48.64915809 444.97304859 45.5 442 C44.0989706 440.68227862 42.69792856 439.36457068 41.296875 438.046875 C40.58724609 437.37849609 39.87761719 436.71011719 39.14648438 436.02148438 C27.6535962 425.18829271 27.6535962 425.18829271 16.07226562 414.44995117 C14.6131443 413.10904132 13.15997537 411.7616632 11.70703125 410.4140625 C9.05019292 407.98515173 9.05019292 407.98515173 6.26171875 405.8984375 C5.01841797 404.92777344 5.01841797 404.92777344 3.75 403.9375 C2.65945313 403.14666016 2.65945313 403.14666016 1.546875 402.33984375 C-2.77122279 395.80817563 0.56332601 384.08214854 1.49404907 376.7585907 C1.65471875 375.45500463 1.81538842 374.15141856 1.98092687 372.80832988 C2.4240329 369.21418729 2.87463675 365.62101958 3.32649469 362.02796829 C3.81357521 358.14377079 4.29351976 354.25869109 4.77424622 350.373703 C5.60713368 343.64975527 6.44416753 336.92633445 7.28377151 330.20322227 C8.49808829 320.47772023 9.70322327 310.75109633 10.90564577 301.02411733 C12.85755021 285.23428758 14.81297976 269.44489714 16.77246094 253.65600586 C16.88961953 252.71195693 17.00677813 251.767908 17.12748699 250.79525153 C18.79225502 237.38226315 20.46098821 223.96977116 22.13141768 210.55748681 C22.24918266 209.61192192 22.36694764 208.66635704 22.48828125 207.69213867 C22.60590488 206.74772833 22.72352852 205.80331799 22.8447165 204.83028915 C24.80444087 189.09341592 26.75426826 173.35533558 28.69589174 157.61621886 C29.89365262 147.91021957 31.09975661 138.20532858 32.31655513 128.50169722 C33.14886331 121.85897966 33.97191437 115.21515734 34.78762461 108.57038131 C35.25876303 104.7350028 35.73415308 100.90027396 36.22076988 97.06682587 C36.74770501 92.91501117 37.25478554 88.76101462 37.75991821 84.60649109 C37.91749088 83.39055494 38.07506355 82.17461878 38.23741114 80.92183608 C38.43521664 79.25457401 38.43521664 79.25457401 38.6370182 77.55362988 C38.81586648 76.11559609 38.81586648 76.11559609 38.99832785 74.64851111 C39.00152821 69.5794685 36.30137039 65.59471703 33.83203125 61.30078125 C32.87369385 59.62894775 32.87369385 59.62894775 31.89599609 57.92333984 C31.20159745 56.71966883 30.50709629 55.51605697 29.8125 54.3125 C29.09691381 53.06736609 28.3815854 51.82208399 27.66650391 50.57666016 C25.81527447 47.35442487 23.95997271 44.13455332 22.10369873 40.91522217 C20.68014907 38.44497029 19.2593689 35.97313201 17.83872986 33.50120544 C16.18548568 30.62503583 14.53030618 27.74998346 12.875 24.875 C11.97164917 23.30552612 11.97164917 23.30552612 11.05004883 21.7043457 C10.47407959 20.7062085 9.89811035 19.70807129 9.3046875 18.6796875 C8.75651367 17.72932617 8.20833984 16.77896484 7.64355469 15.79980469 C5.51851916 12.17979467 3.30680824 8.61540781 1.07080078 5.06298828 C0 3 0 3 0 0 Z " fill="#EB1C24" transform="translate(817,896)"/>
<path d="M0 0 C0 55.77 0 111.54 0 169 C43.23 169 86.46 169 131 169 C128.75367415 179.10846632 128.75367415 179.10846632 127.44921875 182.65625 C127.16554443 183.44217529 126.88187012 184.22810059 126.58959961 185.0378418 C126.29190674 185.850354 125.99421387 186.66286621 125.6875 187.5 C123.4090412 193.84936809 121.27822236 200.19745207 119.4375 206.6875 C117.61573743 213.10154424 115.50007644 219.35754344 113.23022461 225.62573242 C111.4692621 230.53824759 109.9298189 235.48179691 108.5 240.5 C106.65497885 246.97542907 104.52261866 253.29540836 102.23046875 259.625 C100.2226623 265.22626519 98.52873897 270.88368686 96.90112305 276.60522461 C95.1924146 282.53254283 93.18899487 288.33035411 91.0546875 294.1171875 C90.81621094 294.77074219 90.57773438 295.42429687 90.33203125 296.09765625 C90.12296143 296.65976807 89.9138916 297.22187988 89.69848633 297.80102539 C88.63387131 301.15264631 87.85291086 304.58835655 87 308 C11.76 308 -63.48 308 -141 308 C-141.515625 280.300625 -142.03125 252.60125 -142.5625 224.0625 C-142.7901001 215.36269775 -143.0177002 206.66289551 -143.25219727 197.69946289 C-143.3651123 186.95788574 -143.3651123 186.95788574 -143.38609314 181.90647888 C-143.40912233 178.42424254 -143.50154304 174.95182128 -143.63938904 171.47227478 C-144.8487072 139.55078061 -144.8487072 139.55078061 -133.93867511 127.42840165 C-129.30512528 122.61932923 -124.25077246 118.32758461 -118.95455456 114.26955032 C-113.26875863 109.9019884 -108.0009299 105.13370681 -103 100 C-101.90566799 98.89813089 -100.81010654 97.79748207 -99.71362305 96.69775391 C-99.11917892 96.10008209 -98.5247348 95.50241028 -97.91227722 94.8866272 C-95.21592602 92.17678937 -92.51683036 89.46969178 -89.81762695 86.76269531 C-88.40200841 85.34204706 -86.98728856 83.9205027 -85.57348633 82.49804688 C-83.51364569 80.42596386 -81.45049212 78.35722771 -79.38671875 76.2890625 C-78.76560715 75.66278961 -78.14449554 75.03651672 -77.50456238 74.39126587 C-74.44590589 71.33222683 -71.33885285 68.38874943 -68.06176758 65.56396484 C-63.71023978 61.80260998 -59.66724461 57.7762643 -55.625 53.6875 C-54.85623535 52.91494873 -54.0874707 52.14239746 -53.29541016 51.34643555 C-50.86114235 48.90005818 -48.43015894 46.4504586 -46 44 C-42.79463822 40.76786312 -39.58585927 37.53917465 -36.375 34.3125 C-35.65393066 33.58313232 -34.93286133 32.85376465 -34.18994141 32.10229492 C-30.19061693 28.08394372 -26.08712295 24.26858113 -21.79269409 20.56784058 C-19.45971785 18.5274842 -17.27183648 16.36807013 -15.09765625 14.16015625 C-14.27072266 13.32548828 -13.44378906 12.49082031 -12.59179688 11.63085938 C-11.75712891 10.78330078 -10.92246094 9.93574219 -10.0625 9.0625 C-8.36815673 7.34281128 -6.67166723 5.62523353 -4.97265625 3.91015625 C-3.86289429 2.78299194 -3.86289429 2.78299194 -2.73071289 1.63305664 C-1 0 -1 0 0 0 Z " fill="#FEFEFE" transform="translate(1433,1066)"/>
<path d="M0 0 C4.25842665 4.75881731 6.97261511 10.26991118 9.9375 15.875 C14.34771962 24.11552501 18.82032643 32.31101935 23.4375 40.4375 C23.96102051 41.36054932 24.48454102 42.28359863 25.02392578 43.23461914 C26.10573639 45.14133086 27.18793692 47.0478214 28.27050781 48.95410156 C31.45886341 54.56928005 34.64062264 60.1879946 37.8125 65.8125 C38.42988037 66.89909912 39.04726074 67.98569824 39.68334961 69.10522461 C40.24803955 70.1081958 40.81272949 71.11116699 41.39453125 72.14453125 C42.15020386 73.48028198 42.15020386 73.48028198 42.92114258 74.84301758 C44 77 44 77 44 79 C35.42 79 26.84 79 18 79 C18 165.79 18 252.58 18 342 C5.46 342 -7.08 342 -20 342 C-20 255.21 -20 168.42 -20 79 C-27.92 79 -35.84 79 -44 79 C-39.81719037 70.27585421 -35.16576582 61.88848913 -30.38085938 53.48364258 C-25.96742574 45.72855612 -21.629217 37.93427378 -17.3125 30.125 C-11.70058763 19.98581849 -5.95811693 9.93954096 0 0 Z " fill="#E91D25" transform="translate(1738,1033)"/>
<path d="M0 0 C12.54 0 25.08 0 38 0 C38 68.64 38 137.28 38 208 C25.46 208 12.92 208 0 208 C0 139.36 0 70.72 0 0 Z " fill="#E91E25" transform="translate(1650,1167)"/>
<path d="M0 0 C9.57 0 19.14 0 29 0 C29.02254632 18.10607938 29.04097876 36.21214684 29.05181217 54.31823635 C29.05697531 62.72461384 29.06401834 71.13098201 29.07543945 79.53735352 C29.08538575 86.86167932 29.0918533 94.18599837 29.09408849 101.51033074 C29.09539569 105.39090787 29.09848212 109.2714657 29.10573006 113.15203667 C29.11248942 116.80039557 29.11461713 120.44872711 29.11310768 124.09709167 C29.11351637 126.08288419 29.118912 128.0686737 29.12442017 130.05445862 C29.1230455 131.2254007 29.12167084 132.39634277 29.12025452 133.60276794 C29.12117631 134.62687995 29.1220981 135.65099195 29.12304783 136.70613766 C29 139 29 139 28 140 C25.76070114 140.09436529 23.5183825 140.11742327 21.27709961 140.11352539 C20.5746965 140.11367142 19.8722934 140.11381744 19.14860535 140.1139679 C16.81648722 140.11326872 14.484448 140.10547617 12.15234375 140.09765625 C10.53951562 140.09579208 8.92668693 140.09436818 7.31385803 140.09336853 C3.06084643 140.08954323 -1.19213124 140.07971285 -5.44512939 140.06866455 C-9.7817743 140.05845069 -14.11842467 140.05387096 -18.45507812 140.04882812 C-26.97006769 140.03809059 -35.48502963 140.02101403 -44 140 C-41.91032404 131.10703996 -39.33159114 122.42878579 -36.52734375 113.73828125 C-36.08677752 112.36290834 -35.64658182 110.9874167 -35.20672607 109.61181641 C-34.27220157 106.69142636 -33.33545318 103.77176374 -32.39682007 100.85269165 C-30.17046007 93.92865353 -27.9548417 87.00117504 -25.73818398 80.07402611 C-24.98212147 77.71170886 -24.225593 75.34954116 -23.46903992 72.98738098 C-20.14790338 62.61374845 -16.85190733 52.23242063 -13.578125 41.84375 C-13.36719774 41.17456228 -13.15627048 40.50537457 -12.93895149 39.81590843 C-11.12793936 34.06948755 -9.31893002 28.32243983 -7.51315308 22.57437134 C-6.43061688 19.12860534 -5.34625797 15.68341721 -4.26171875 12.23828125 C-3.94297791 11.22080811 -3.62423706 10.20333496 -3.2958374 9.1550293 C-3.00573792 8.23415527 -2.71563843 7.31328125 -2.41674805 6.36450195 C-2.1655571 5.56446243 -1.91436615 4.76442291 -1.65556335 3.94013977 C-1 2 -1 2 0 0 Z " fill="#E81D25" transform="translate(1589,1235)"/>
<path d="M0 0 C0.33 0 0.66 0 1 0 C1 45.87 1 91.74 1 139 C9.91 139 18.82 139 28 139 C28 139.33 28 139.66 28 140 C4.24 140 -19.52 140 -44 140 C-43.505 139.01 -43.505 139.01 -43 138 C-21.715 138.495 -21.715 138.495 0 139 C-0.33 96.1 -0.66 53.2 -1 9 C-1.66 9.33 -2.32 9.66 -3 10 C-2.01 6.7 -1.02 3.4 0 0 Z " fill="#AD4235" transform="translate(1589,1235)"/>
</svg>
